# xmcd
#
# Track frame offsets:
#	150
#	12848
#	30730
#	55599
#	70513
#	82782
#	101047
#	119790
#	138778
#	148264
#	169391
#	183375
#
# Disc length: 2653 seconds
#
# Revision: 1
# Processed by: cddbd v1.5.2PL0 Copyright (c) Steve Scherf et al.
# Submitted via: audiograbber 1.83.01
#
DISCID=a00a5b0c
DTITLE=Manfred Krug - Da bist du ja
DYEAR=1900
DGENRE=Deutsch
TTITLE0=Jeden Tag das Weckerklingeln
TTITLE1=Um die weite Welt zu sehhn
TTITLE2=Adé
TTITLE3=Wenn ich dich seh'
TTITLE4=Wann, sag' wann
TTITLE5=Wiener Blut
TTITLE6=Mozart
TTITLE7=Die Nacht ist um
TTITLE8=Da bist du ja
TTITLE9=Warum sagst du mir adieu
TTITLE10=Früh war der Tag erwacht
TTITLE11=Die fegen hier schon auf
EXTD=
EXTT0=
EXTT1=
EXTT2=
EXTT3=
EXTT4=
EXTT5=
EXTT6=
EXTT7=
EXTT8=
EXTT9=
EXTT10=
EXTT11=
PLAYORDER=
